PathFileType	4	(X/Y/Z)	C:\Users\Biomechanik\SynologyDrive\AlexP\Athlete_03\Athlete_3_25_03_31\Walking_04\marker_experimental.trc
DataRate	CameraRate	NumFrames	NumMarkers	Units	OrigDataRate	OrigDataStartFrame	OrigNumFrames
200.000000	200.000000	4	53	mm	200.000000	231	463
Frame#	Time	GLAB			RFHD			LFHD			C7			T6			SPINMOL			SPINM2			SPINM3			T12			BELTOL			BELT2			BELT3			SACROL			SACR2			SACR3			LTHOL			LTH2			LTH3			LSHAOL			LSHA2			LSHA3			LHEE			LTOE			LM5			RTH2			RSHAOL			RSHA2			RSHA3			RHEE			RTOE			RM5			STRN			XIPH			LACR			LUAOL			LUA2			LUA3			LLAOL			LLA2			LLA3			LWRR			LWRU			RACR			RUAOL			RUA2			RUA3			RLAOL			RLA2			RLA3			RWRR			RWRU			RTH3			RTHOL			
		X1	Y1	Z1	X2	Y2	Z2	X3	Y3	Z3	X4	Y4	Z4	X5	Y5	Z5	X6	Y6	Z6	X7	Y7	Z7	X8	Y8	Z8	X9	Y9	Z9	X10	Y10	Z10	X11	Y11	Z11	X12	Y12	Z12	X13	Y13	Z13	X14	Y14	Z14	X15	Y15	Z15	X16	Y16	Z16	X17	Y17	Z17	X18	Y18	Z18	X19	Y19	Z19	X20	Y20	Z20	X21	Y21	Z21	X22	Y22	Z22	X23	Y23	Z23	X24	Y24	Z24	X25	Y25	Z25	X26	Y26	Z26	X27	Y27	Z27	X28	Y28	Z28	X29	Y29	Z29	X30	Y30	Z30	X31	Y31	Z31	X32	Y32	Z32	X33	Y33	Z33	X34	Y34	Z34	X35	Y35	Z35	X36	Y36	Z36	X37	Y37	Z37	X38	Y38	Z38	X39	Y39	Z39	X40	Y40	Z40	X41	Y41	Z41	X42	Y42	Z42	X43	Y43	Z43	X44	Y44	Z44	X45	Y45	Z45	X46	Y46	Z46	X47	Y47	Z47	X48	Y48	Z48	X49	Y49	Z49	X50	Y50	Z50	X51	Y51	Z51	X52	Y52	Z52	X53	Y53	Z53	

232	1.155	821.2467651367186	1567.192260742188	261.1216430664064	771.0886230468748	1591.065185546875	326.862762451172	778.2562866210936	1592.939086914062	188.3336181640626	595.6267700195311	1408.460693359375	247.7166748046876	537.3043212890624	1240.955444335938	241.5323028564454	528.2618408203124	1200.689697265625	219.7813873291016	524.0639038085936	1192.75	269.3908081054689	533.3898925781249	1136.438354492188	235.1421203613282	559.1461181640624	1069.562866210938	237.0427093505861	521.4687499999999	1032.389770507812	227.4621124267579	525.5834350585936	1029.00341796875	277.8843994140626	517.9562377929686	970.1177368164062	247.7998352050782	531.7707519531249	929.560791015625	229.7471771240235	542.6011962890625	923.00244140625	279.444061279297	517.8486938476562	868.21337890625	251.471176147461	548.6259765625	671.4940185546875	54.66761779785166	491.7701721191406	632.6368408203125	94.82569885253915	532.4202880859375	614.883056640625	72.16146850585947	413.6527099609375	347.1625366210938	72.6462478637696	341.9393920898438	314.8263854980469	85.43291473388678	387.0442504882812	291.9511413574219	84.19073486328132	235.7092742919922	153.7003021240235	180.3511352539063	417.4862060546874	39.10308074951175	176.3634796142579	372.4781188964844	37.21623992919924	76.47844696044929	795.4502563476561	617.9808349609375	423.2865295410158	827.1950683593749	316.0833740234376	399.733612060547	882.8485717773436	260.0623779296876	398.3988342285158	834.4166259765624	256.4413757324219	385.8227844238283	880.7056274414062	46.57542037963873	296.9339599609377	1084.921020507812	89.21942138671882	289.8587036132815	1053.776977539062	52.41679382324225	389.9933471679689	765.7980346679686	1304.182373046875	246.506057739258	778.4808349609374	1160.5634765625	238.7105407714845	674.7347412109374	1376.121826171875	74.67256164550794	690.9869995117186	1232.840698242188	-33.24154663085925	687.9420776367186	1170.607299804688	-54.74291229248034	734.1492309570311	1183.125732421875	-34.3125076293944	810.8022460937499	1002.339172363281	-85.84171295166001	821.9990844726562	926.080078125	-68.35908508300766	856.0722045898436	962.02587890625	-76.48582458496078	939.1458129882812	901.7553100585939	-62.2166442871092	956.5563354492186	936.5456542968751	8.147157669067559	675.9144897460935	1356.951293945312	417.1936950683595	631.9238281249998	1210.483032226562	510.029266357422	646.1240234374998	1146.09521484375	520.1187744140626	596.0711669921873	1157.070068359375	525.7940673828126	591.960998535156	939.3630981445312	562.9408569335939	632.0676879882811	882.8381958007812	601.6658325195314	596.2685546874999	875.8663330078125	569.8421630859376	617.3883666992186	792.0497436523438	594.2911376953126	666.3662109374999	768.1781616210938	532.9990844726564	754.2006835937499	596.7069702148438	409.9877014160157	721.3086547851561	646.5782470703125	421.3563842773439	
233	1.16	828.2135009765624	1567.769897460938	262.3587951660158	778.148742675781	1591.61474609375	328.1434631347658	785.1144409179686	1593.384033203125	189.6770935058595	602.6773681640624	1408.754760742188	249.2626953125001	544.5566406249999	1241.152709960938	242.7564849853517	535.6491088867186	1200.838256835938	220.8125457763673	531.3427124023436	1192.838012695312	270.451141357422	540.9101562499999	1136.52197265625	236.1074981689454	566.5645141601561	1069.616821289062	237.8289031982423	529.5938720703124	1032.104370117188	228.255355834961	533.5377197265624	1028.529052734375	278.4870910644532	526.1279296874999	969.75390625	248.5229034423829	539.2138061523436	929.1618041992188	230.2420654296876	550.1942138671875	923.0267333984375	279.9757385253907	525.86962890625	867.8556518554688	252.2879333496095	556.943115234375	671.1322631835938	55.14308929443369	500.3407897949218	632.247802734375	95.64218902587899	540.8690185546875	614.52099609375	72.73592376708994	420.5992126464844	348.490478515625	72.66841125488288	348.2609558105469	317.453857421875	85.30300140380866	392.9531555175781	293.8710632324219	84.00756835937507	240.2548065185547	158.6203918457032	180.4310455322266	417.5740356445312	38.77586364746097	176.5599060058595	373.4263916015625	37.90887069702151	76.5040359497071	801.5591430664061	618.718505859375	423.3264770507814	833.2559814453124	318.4447326660157	401.2218627929689	888.7697143554686	262.2543029785157	401.7738037109377	840.7775878906249	258.5941772460938	387.9428100585939	881.7399291992188	47.5589332580567	297.5741271972658	1086.792724609375	85.33649444580085	289.1081848144534	1055.283325195312	49.08491134643561	389.8095703125002	773.0000610351561	1304.570068359375	247.8628692626955	785.8253784179686	1161.0419921875	239.9671783447267	681.7832641601561	1376.379150390625	75.9707946777345	697.6544799804686	1233.017456054688	-31.96639633178698	694.3706054687499	1170.730712890625	-53.68651199340808	740.5879516601561	1183.039672851562	-33.16390228271471	816.1366577148436	1001.871215820312	-85.14891052246078	826.968017578125	925.4893188476562	-67.79285430908187	861.3358764648436	961.2437133789062	-76.2080459594725	943.9990234375	900.4216918945314	-61.52629470825178	961.7564697265624	935.0154418945314	8.408657073974785	683.148254394531	1356.951293945312	418.7549133300782	639.5637207031248	1209.750854492188	511.2447814941407	653.889953613281	1145.583740234375	521.2989501953126	603.7033691406248	1156.516723632812	527.0737304687501	599.8173828124998	938.6508178710938	563.4863281250001	640.1550292968749	881.5637817382812	602.2736206054689	604.2606811523436	874.99365234375	570.2857055664064	625.5392456054686	791.118408203125	594.4881591796876	674.3261718749999	767.3741455078125	533.0319824218751	760.4464721679686	597.8933715820312	410.7773437500001	727.9927978515624	648.222900390625	422.0241699218751	
234	1.165	835.1729125976561	1568.417114257812	263.6385498046877	785.1450195312498	1592.19775390625	329.4587707519533	792.0291137695311	1593.925048828125	190.9869537353517	609.7755126953124	1409.10009765625	250.7906646728517	551.7401733398436	1241.406860351562	243.847869873047	543.0018920898436	1201.050415039062	221.8154449462892	538.7930908203124	1192.805541992188	271.1754760742189	548.3319091796874	1136.769409179688	237.0035400390626	573.8434448242186	1069.857543945312	238.4208984375001	537.6945800781249	1031.8251953125	228.766098022461	541.5101928710936	1028.508911132812	278.997039794922	534.3344116210936	969.4651489257812	249.0994720458985	546.6983032226561	928.9342651367188	230.6082153320314	557.7695922851562	923.2734985351562	280.2774963378907	533.835693359375	867.7642211914062	253.0832519531251	565.468505859375	670.6973266601562	55.76628875732433	509.1644592285156	631.8046875	96.51268005371104	549.5521240234375	614.080078125	73.31996917724619	427.6170654296875	350.3083190917969	72.10942077636727	354.9734802246094	320.1462097167969	85.22406005859382	399.3377990722656	295.8782348632812	83.84244537353523	245.2131042480468	163.7589416503907	180.8817901611329	417.6490478515624	38.55306243896487	176.7392120361329	374.5481872558594	38.59650039672854	76.5287170410157	807.6997680664061	619.6273193359375	424.4334106445314	839.0212402343749	320.5075683593751	404.3518066406252	893.5393676757811	264.3152465820313	407.5513000488283	846.7316894531249	261.0980529785157	390.7569580078127	882.6692504882812	48.37549591064459	298.231903076172	1088.464721679688	82.21867370605476	289.0901489257815	1056.425537109375	45.8126296997071	389.8908996582033	780.1437988281249	1305.126098632812	249.2479553222658	793.1360473632811	1161.66748046875	241.3233032226564	688.7838134765624	1376.7705078125	77.30960845947278	704.2343139648436	1233.197021484375	-30.46072196960436	700.9979248046874	1171.833862304688	-52.99276733398425	746.8289794921874	1183.096923828125	-31.85660362243638	821.3641357421874	1001.464965820312	-84.42636108398422	831.8505859375	924.9483642578125	-67.21659851074203	866.2019042968749	960.588623046875	-75.45327758789047	948.7260131835938	899.4112548828126	-61.72031021118146	966.7539672851561	933.5222778320314	8.634982109070002	690.3747558593748	1356.664916992188	420.2405090332032	647.169006347656	1209.335571289062	512.4566040039064	661.6427612304685	1145.070190429688	522.4333496093751	611.502990722656	1155.816162109375	528.1244506835939	608.134338378906	937.7071533203125	564.1463012695314	648.3150634765624	880.6810913085938	602.7033691406251	612.4202880859374	874.2133178710938	570.7263183593751	633.8814697265624	790.2915649414062	594.3531494140626	682.3792114257811	766.7672119140625	532.9404296875001	766.3630371093749	599.1452026367188	411.4405212402345	734.0676269531249	649.4966430664062	422.9490356445314	
235	1.17	842.0975952148436	1569.091064453125	264.8936462402345	792.2344970703123	1592.885986328125	330.7031860351564	798.8333740234374	1594.48828125	192.2616271972658	616.9939575195311	1409.58251953125	252.3795776367189	559.0140380859374	1241.657836914062	244.8553466796876	550.3106689453124	1201.427612304688	222.7793579101564	546.1775512695311	1193.186645507812	272.3828125000001	555.5859374999999	1137.115478515625	237.8105010986329	580.9849853515624	1070.255126953125	238.9153442382814	545.8098754882811	1031.813598632812	229.0377655029298	549.3651733398436	1028.572631835938	279.3449096679689	542.5276489257811	969.501953125	249.4656524658204	554.3599853515624	928.9021606445312	230.8498840332032	565.2989501953125	923.6483764648438	280.6582336425782	541.9097290039062	867.7662963867188	253.7788238525392	574.1673583984375	670.44873046875	56.28911590576183	518.1815795898438	631.244384765625	97.29490661621104	558.5247802734375	613.6749877929688	73.89028167724619	435.2971496582031	351.7922058105469	72.05958557128915	362.1475830078125	322.9665832519531	85.14672088623054	406.1282958984375	297.9814758300781	83.70053100585945	251.0237731933593	168.9507904052735	181.2406158447266	417.7658996582031	38.38307952880862	176.9726867675782	375.7251892089844	39.30990982055666	76.61178588867195	813.5293579101561	620.5070190429688	425.5713195800783	844.8261718749999	322.4642944335938	407.6550292968752	898.0800170898436	265.8087463378907	412.981658935547	852.2789306640624	263.0705871582032	393.9058532714845	883.5498657226562	49.17976379394537	298.8382568359377	1090.17822265625	79.65654754638679	289.928161621094	1057.4296875	43.13478851318366	390.1170959472658	787.2975463867186	1305.850341796875	250.6326904296876	800.5434570312499	1162.421752929688	242.753143310547	695.7791748046874	1377.232421875	78.5889587402345	711.0390014648436	1233.68017578125	-29.421510696411	707.1884155273436	1171.764404296875	-51.5919265747069	753.2714233398436	1183.156616210938	-30.91725921630846	826.4729614257811	1001.1171875	-83.66423797607406	836.4812622070312	924.37255859375	-66.61918640136703	871.0596313476561	959.8784790039062	-74.90895080566391	953.2437133789062	898.0615844726564	-61.46522140502912	971.6152343749999	931.9452514648439	8.837581634521662	697.690979003906	1356.869018554688	421.7409057617189	654.9010620117185	1208.94873046875	513.5968017578126	669.7301635742185	1145.1640625	523.0454711914064	619.3537597656248	1155.532470703125	529.3783569335939	616.2746582031248	937.1444702148438	564.8408813476564	656.6644897460936	879.9234008789062	603.3670043945314	620.6798095703124	873.5669555664062	571.1286010742189	642.0755004882811	789.6688232421875	594.5310668945314	690.5390624999999	766.27490234375	532.8527221679689	772.2277221679686	600.3939208984375	411.9702758789064	740.2911376953124	651.0238037109375	423.1335754394532	
